<svg id="Layer_1" data-name="Layer 1" xmlns="http://www.w3.org/2000/svg" viewBox="0 0 1602.79 647.65"><defs><style>.cls-1{fill:#1a1a1a;}</style></defs><title>eclo</title><path class="cls-1" d="M554.79,1074.46a139.74,139.74,0,1,1-118-214.54c63.21,0,109.74,42.58,128.74,84.58l81-82c-16-31-84.72-115.5-210.45-115.5C296.9,747,184.1,859.8,184.1,999s112.8,252,252,252a251.7,251.7,0,0,0,211.72-115.36Z" transform="translate(-184.1 -604.5)"/><rect class="cls-1" x="355.11" y="871.69" width="295.4" height="112" transform="translate(-692.81 22.75) rotate(-45)"/><path class="cls-1" d="M957.57,1129.77A139.74,139.74,0,1,1,940.5,864.5V749.72a253.91,253.91,0,0,0-35.31-2.47c-139.15,0-252,112.8-252,252s112.8,252,252,252a250.77,250.77,0,0,0,122.12-31.54c-5.07-4.43-10-9-14.83-13.84A292.59,292.59,0,0,1,957.57,1129.77Z" transform="translate(-184.1 -604.5)"/><rect class="cls-1" x="831.75" y="740.18" width="383.36" height="112" transform="translate(43.15 1215.11) rotate(-90)"/><path class="cls-1" d="M1328.75,1205.64a292.42,292.42,0,0,1-54.83-75.85,139.77,139.77,0,0,1-193.76-128.88c0-6.08-.41-114.54.34-120.41l-1-94c-68.45,45-112.26,125.63-112.26,213.7,0,139.15,112.8,252,252,252a250.78,250.78,0,0,0,124.29-32.76Q1335.92,1212.79,1328.75,1205.64Z" transform="translate(-184.1 -604.5)"/><path class="cls-1" d="M1534.94,746.53c-139.15,0-252,112.81-252,252s112.8,252,252,252,252-112.8,252-252S1674.08,746.53,1534.94,746.53Zm.7,392.4a139.74,139.74,0,1,1,139.74-139.74A139.74,139.74,0,0,1,1535.64,1138.93Z" transform="translate(-184.1 -604.5)"/></svg>